<svg id="레이어_1" data-name="레이어 1" xmlns="http://www.w3.org/2000/svg" viewBox="0 0 276.19 62.48"><defs><style>.cls-1{fill:#51656f;}.cls-2{fill:#00a2b8;}</style></defs><path class="cls-1" d="M114.27,47.34h1.82a1.88,1.88,0,0,1,2.21,2,1.92,1.92,0,0,1-2.06,2.07h-1.09v3h-.88Zm.88,3.4h1c.64,0,1.18-.44,1.18-1.39a1.13,1.13,0,0,0-1.24-1.29h-1Z"/><path class="cls-1" d="M120.78,47.34h3.69v.78h-2.81v2.24h2.65v.78h-2.65V53.7h2.92v.78h-3.8Z"/><path class="cls-1" d="M129.28,54.48h-.88V48.12h-1.79v-.78h4.47v.78h-1.8Z"/><path class="cls-1" d="M137.54,47.34h.88V53.7h2.9v.78h-3.78Z"/><path class="cls-1" d="M143.68,47.34h.88v7.14h-.88Z"/><path class="cls-1" d="M147.42,47.34h3.68v.78h-2.8v2.24h2.64v.78H148.3v3.34h-.88Z"/><path class="cls-1" d="M153.56,47.34h3.69v.78h-2.81v2.24h2.64v.78h-2.64V53.7h2.92v.78h-3.8Z"/><path class="cls-1" d="M167,49.19c0-.75-.27-1.27-1.11-1.27a1.06,1.06,0,0,0-1.18,1.16c0,2,3.36.81,3.36,3.42a2,2,0,0,1-2.21,2.12c-1.67,0-2.16-.86-2.16-2.38h.88c0,.8.05,1.66,1.34,1.66a1.19,1.19,0,0,0,1.23-1.26c0-2-3.36-.85-3.36-3.47a1.87,1.87,0,0,1,2.09-2,1.77,1.77,0,0,1,2,2Z"/><path class="cls-1" d="M172.85,54.48H172V48.12h-1.79v-.78h4.47v.78h-1.81Z"/><path class="cls-1" d="M176.42,47.34h1l1.36,3.34,1.41-3.34h.92l-1.9,4.34v2.8h-.87v-2.8Z"/><path class="cls-1" d="M183.34,47.34h.88V53.7h2.89v.78h-3.77Z"/><path class="cls-1" d="M189.48,47.34h3.68v.78h-2.8v2.24H193v.78h-2.64V53.7h2.92v.78h-3.8Z"/><path class="cls-1" d="M204.27,52c-.08,1.35-.61,2.59-2.17,2.59-2,0-2.29-1.91-2.29-3.71s.33-3.71,2.29-3.71c1.46,0,2.07.82,2.11,2.22h-.92c0-.81-.28-1.5-1.19-1.5-1.21,0-1.37,1.34-1.37,3s.16,3,1.37,3,1.23-1,1.25-1.87Z"/><path class="cls-1" d="M211.29,50.91c0,1.8-.33,3.71-2.29,3.71s-2.3-1.91-2.3-3.71S207,47.2,209,47.2,211.29,49.11,211.29,50.91Zm-3.67,0c0,1.65.16,3,1.38,3s1.37-1.34,1.37-3-.15-3-1.37-3S207.62,49.26,207.62,50.91Z"/><path class="cls-1" d="M214.08,47.34h1.48L217,53h0l1.43-5.66h1.48v7.14H219V48.24h0l-1.58,6.24h-.87L215,48.24h0v6.24h-.88Z"/><path class="cls-1" d="M222.8,47.34h1.81a1.88,1.88,0,0,1,2.21,2,1.92,1.92,0,0,1-2.06,2.07h-1.09v3h-.87Zm.87,3.4h1.06c.63,0,1.17-.44,1.17-1.39a1.13,1.13,0,0,0-1.24-1.29h-1Z"/><path class="cls-1" d="M230.33,47.34h1.18l1.92,7.14h-.92l-.51-2h-2.27l-.53,2h-.92Zm-.42,4.46h1.92l-.92-3.45h0Z"/><path class="cls-1" d="M235.64,47.34h1.14l2.36,6h0v-6H240v7.14h-1.2l-2.29-5.78h0v5.78h-.88Z"/><path class="cls-1" d="M242.3,47.34h1l1.36,3.34,1.4-3.34H247l-1.88,4.34v2.8h-.88v-2.8Z"/><path class="cls-1" d="M89.92,17.62h2l4.45,17.16h.05l4.78-17.16h2.34l4.8,17.16h.06l4.47-17.16h1.87l-5.41,19.61h-2l-5-17.55h0l-5,17.55h-2Z"/><path class="cls-1" d="M122.44,17.62h1.86V37.23h-1.86Z"/><path class="cls-1" d="M131.77,17.62h15.55v1.59h-6.84v18h-1.87v-18h-6.84Z"/><path class="cls-1" d="M154.65,17.62h1.87v8.51h11.64V17.62H170V37.23h-1.87V27.72H156.52v9.51h-1.87Z"/><path class="cls-1" d="M182.22,17.62h1.87v18h11v1.6H182.22Z"/><path class="cls-1" d="M208.2,17.62h2.09L218,37.23h-2l-2.39-6.1h-8.92l-2.37,6.1h-2Zm-3,11.92H213l-3.79-10.06Z"/><path class="cls-1" d="M225.22,17.62h2.09L238.74,34.2h0V17.62h1.87V37.23h-2.09L227.15,20.64h-.06V37.23h-1.87Z"/><path class="cls-1" d="M250.08,17.62h6.78c5.91.13,9,3.37,9,9.8s-3.1,9.67-9,9.81h-6.78Zm1.86,18h4c5.63,0,8.07-2.36,8.07-8.21s-2.44-8.24-8.07-8.21h-4Z"/><polygon class="cls-2" points="24.74 12.51 16.45 31.15 27.11 54.62 46.03 12.51 24.74 12.51"/><polygon class="cls-2" points="47.68 12.51 36.12 38.25 43.99 55.58 63.56 12.51 47.68 12.51"/><polygon class="cls-2" points="23.07 12.51 15.53 29.12 7.99 12.51 23.07 12.51"/><polygon class="cls-2" points="64.89 12.06 73.65 3.3 73.65 12.06 64.89 12.06"/></svg>