<svg id="레이어_1" data-name="레이어 1" xmlns="http://www.w3.org/2000/svg" viewBox="0 0 276.19 64.76"><defs><style>.cls-1{fill:#fff;}</style></defs><path class="cls-1" d="M114.27,47.72h1.82a1.88,1.88,0,0,1,2.21,2.05,1.92,1.92,0,0,1-2.06,2.07h-1.09v3h-.88Zm.88,3.4h1c.64,0,1.18-.44,1.18-1.39a1.13,1.13,0,0,0-1.24-1.29h-1Z"/><path class="cls-1" d="M120.78,47.72h3.69v.78h-2.81v2.24h2.65v.78h-2.65v2.56h2.92v.78h-3.8Z"/><path class="cls-1" d="M129.28,54.86h-.88V48.5h-1.79v-.78h4.47v.78h-1.8Z"/><path class="cls-1" d="M137.54,47.72h.88v6.36h2.9v.78h-3.78Z"/><path class="cls-1" d="M143.68,47.72h.88v7.14h-.88Z"/><path class="cls-1" d="M147.42,47.72h3.68v.78h-2.8v2.24h2.64v.78H148.3v3.34h-.88Z"/><path class="cls-1" d="M153.56,47.72h3.69v.78h-2.81v2.24h2.64v.78h-2.64v2.56h2.92v.78h-3.8Z"/><path class="cls-1" d="M167,49.57c0-.75-.27-1.27-1.11-1.27a1.06,1.06,0,0,0-1.18,1.16c0,2,3.36.81,3.36,3.42A2,2,0,0,1,165.88,55c-1.67,0-2.16-.86-2.16-2.38h.88c0,.8.05,1.66,1.34,1.66A1.19,1.19,0,0,0,167.17,53c0-2-3.36-.85-3.36-3.47a1.87,1.87,0,0,1,2.09-2,1.77,1.77,0,0,1,2,2Z"/><path class="cls-1" d="M172.85,54.86H172V48.5h-1.79v-.78h4.47v.78h-1.81Z"/><path class="cls-1" d="M176.42,47.72h1l1.36,3.34,1.41-3.34h.92l-1.9,4.34v2.8h-.87v-2.8Z"/><path class="cls-1" d="M183.34,47.72h.88v6.36h2.89v.78h-3.77Z"/><path class="cls-1" d="M189.48,47.72h3.68v.78h-2.8v2.24H193v.78h-2.64v2.56h2.92v.78h-3.8Z"/><path class="cls-1" d="M204.27,52.41c-.08,1.35-.61,2.59-2.17,2.59-2,0-2.29-1.91-2.29-3.71s.33-3.71,2.29-3.71c1.46,0,2.07.82,2.11,2.22h-.92c0-.81-.28-1.5-1.19-1.5-1.21,0-1.37,1.34-1.37,3s.16,3,1.37,3,1.23-1,1.25-1.87Z"/><path class="cls-1" d="M211.29,51.29c0,1.8-.33,3.71-2.29,3.71s-2.3-1.91-2.3-3.71.33-3.71,2.3-3.71S211.29,49.49,211.29,51.29Zm-3.67,0c0,1.65.16,3,1.38,3s1.37-1.34,1.37-3-.15-3-1.37-3S207.62,49.64,207.62,51.29Z"/><path class="cls-1" d="M214.08,47.72h1.48L217,53.38h0l1.43-5.66h1.48v7.14H219V48.62h0l-1.58,6.24h-.87L215,48.62h0v6.24h-.88Z"/><path class="cls-1" d="M222.8,47.72h1.81a1.88,1.88,0,0,1,2.21,2.05,1.92,1.92,0,0,1-2.06,2.07h-1.09v3h-.87Zm.87,3.4h1.06c.63,0,1.17-.44,1.17-1.39a1.13,1.13,0,0,0-1.24-1.29h-1Z"/><path class="cls-1" d="M230.33,47.72h1.18l1.92,7.14h-.92l-.51-2h-2.27l-.53,2h-.92Zm-.42,4.46h1.92l-.92-3.45h0Z"/><path class="cls-1" d="M235.64,47.72h1.14l2.36,6h0v-6H240v7.14h-1.2l-2.29-5.78h0v5.78h-.88Z"/><path class="cls-1" d="M242.3,47.72h1l1.36,3.34,1.4-3.34H247l-1.88,4.34v2.8h-.88v-2.8Z"/><path class="cls-1" d="M89.92,18h2l4.45,17.16h.05L101.21,18h2.34l4.8,17.16h.06L112.88,18h1.87l-5.41,19.61h-2l-5-17.55h0l-5,17.55h-2Z"/><path class="cls-1" d="M122.44,18h1.86V37.61h-1.86Z"/><path class="cls-1" d="M131.77,18h15.55v1.59h-6.84v18h-1.87v-18h-6.84Z"/><path class="cls-1" d="M154.65,18h1.87v8.51h11.64V18H170V37.61h-1.87V28.1H156.52v9.51h-1.87Z"/><path class="cls-1" d="M182.22,18h1.87V36h11v1.6H182.22Z"/><path class="cls-1" d="M208.2,18h2.09L218,37.61h-2l-2.39-6.1h-8.92l-2.37,6.1h-2Zm-3,11.92H213l-3.79-10.06Z"/><path class="cls-1" d="M225.22,18h2.09l11.43,16.59h0V18h1.87V37.61h-2.09L227.15,21h-.06V37.61h-1.87Z"/><path class="cls-1" d="M250.08,18h6.78c5.91.13,9,3.37,9,9.8s-3.1,9.67-9,9.81h-6.78Zm1.86,18h4c5.63,0,8.07-2.36,8.07-8.21s-2.44-8.24-8.07-8.21h-4Z"/><polygon class="cls-1" points="24.74 12.89 16.45 31.53 27.11 55 46.03 12.89 24.74 12.89"/><polygon class="cls-1" points="47.68 12.89 36.12 38.63 43.99 55.96 63.56 12.89 47.68 12.89"/><polygon class="cls-1" points="23.07 12.89 15.53 29.5 7.99 12.89 23.07 12.89"/><polygon class="cls-1" points="64.89 12.45 73.65 3.68 73.65 12.45 64.89 12.45"/></svg>