<svg id="레이어_1" data-name="레이어 1" xmlns="http://www.w3.org/2000/svg" viewBox="0 0 72.38 62.86"><defs><style>.cls-1{fill:#e5e5e5;}</style></defs><path class="cls-1" d="M39.15,15.42,21.78,54.09l-9.56-21,7.84-17.63H39.15m1.54-1H19.41L11.12,33.05,21.78,56.52l18.91-42.1Z"/><path class="cls-1" d="M56.67,15.42l-18,39.64L31.88,40.15,43,15.42H56.67m1.55-1H42.35L30.79,40.16l7.87,17.32L58.22,14.42Z"/><path class="cls-1" d="M16.19,15.42l-6,13.19-6-13.19h12m1.55-1H2.65L10.2,31l7.54-16.6Z"/><path class="cls-1" d="M67.32,7.62V13H62l5.35-5.35m1-2.42L59.55,14h8.77V5.2Z"/></svg>